<svg xmlns="http://www.w3.org/2000/svg" version="1.0" preserveAspectRatio="xMidYMid meet" viewBox="0 1.74 300 167.26">  <g transform="translate(0.000000,169.000000) scale(0.050000,-0.050000)" fill="#facc14" stroke="none"> <path d="M2750 3310 c-77 -28 -149 -52 -160 -55 -11 -3 -32 -21 -46 -40 -15 -19 -35 -35 -46 -35 -90 0 -282 -213 -383 -426 -33 -71 -60 -100 -105 -113 -54 -16 -25 -34 36 -23 10 2 11 -6 4 -18 -7 -11 -25 -20 -41 -20 -17 0 -23 -12 -16 -31 7 -18 -7 -46 -34 -70 -25 -21 -35 -39 -22 -39 13 0 23 -14 23 -31 0 -17 8 -27 17 -21 19 12 15 -58 -7 -113 -9 -21 -5 -35 9 -35 13 0 18 -8 12 -18 -6 -11 21 -29 60 -42 44 -15 68 -34 62 -50 -5 -14 0 -35 13 -48 16 -16 16 -22 -2 -22 -13 0 -24 -10 -24 -22 0 -12 12 -18 26 -12 19 7 25 -10 20 -63 -3 -40 11 -118 32 -173 21 -55 48 -138 61 -185 19 -71 31 -85 72 -85 27 0 68 -19 91 -42 l42 -42 -104 -91 -104 -91 -1118 4 -1118 5 0 -632 0 -631 3000 0 3000 0 0 631 0 631 -1142 -3 -1142 -3 -78 76 c-72 71 -106 127 -57 97 26 -16 120 6 116 26 -7 34 44 126 63 115 12 -7 19 -6 16 4 -11 41 32 178 78 248 28 42 45 91 39 108 -6 16 -3 30 8 30 10 0 19 14 19 30 0 17 -10 30 -22 30 -17 0 -17 8 0 28 13 15 22 35 19 45 -2 9 7 42 20 73 13 31 23 65 23 75 0 10 13 13 29 7 20 -8 25 0 17 30 -8 31 -1 42 24 42 29 0 31 5 9 31 -14 17 -27 68 -30 115 -7 125 -29 198 -77 254 -24 28 -74 95 -112 150 -249 363 -729 560 -1070 440z m48 -859 c159 -82 114 -351 -68 -411 -152 -50 -330 80 -330 240 0 44 -9 80 -20 80 -11 0 -20 9 -20 20 0 11 17 20 39 20 21 0 45 10 52 21 37 60 253 79 347 30z m717 -17 c21 -19 53 -34 72 -34 18 0 33 -9 33 -20 0 -11 -8 -20 -17 -20 -10 0 -22 -41 -28 -92 -35 -311 -499 -297 -494 15 2 169 301 272 434 151z"/> <path d="M2527 2441 c-153 -66 -128 -289 43 -369 202 -97 413 190 249 339 -45 41 -224 59 -292 30z"/> <path d="M3200 2434 c-181 -91 -82 -374 131 -374 198 0 307 300 137 377 -66 30 -206 29 -268 -3z"/> </g> </svg>